<mxfile host="app.diagrams.net" modified="2024-02-27T19:24:22.168Z" agent="Mozilla/5.0 (Macintosh; Intel Mac OS X 10.15; rv:123.0) Gecko/20100101 Firefox/123.0" etag="PZtrJ-75CvTrXYdKALmm" version="23.1.5" type="github" pages="4">
  <diagram name="overall-architecture" id="_0LuUkFGUE584ZhlPqDk">
    <mxGraphModel dx="1274" dy="1706" grid="1" gridSize="10" guides="1" tooltips="1" connect="1" arrows="1" fold="1" page="1" pageScale="1" pageWidth="827" pageHeight="1169" math="0" shadow="0">
      <root>
        <mxCell id="0" />
        <mxCell id="1" parent="0" />
        <mxCell id="3Rabenk_TvTgjoeYO5HY-18" value="AWS Cloud" style="rounded=0;whiteSpace=wrap;html=1;dashed=1;align=left;verticalAlign=top;" parent="1" vertex="1">
          <mxGeometry x="60" y="310" width="740" height="610" as="geometry" />
        </mxCell>
        <mxCell id="3Rabenk_TvTgjoeYO5HY-36" style="edgeStyle=orthogonalEdgeStyle;rounded=0;orthogonalLoop=1;jettySize=auto;html=1;" parent="1" source="3Rabenk_TvTgjoeYO5HY-2" target="3Rabenk_TvTgjoeYO5HY-23" edge="1">
          <mxGeometry relative="1" as="geometry" />
        </mxCell>
        <mxCell id="3Rabenk_TvTgjoeYO5HY-2" value="" style="verticalLabelPosition=bottom;html=1;verticalAlign=top;align=center;strokeColor=none;fillColor=#00BEF2;shape=mxgraph.azure.mobile;pointerEvents=1;" parent="1" vertex="1">
          <mxGeometry x="239.99999999999997" y="200" width="35" height="50" as="geometry" />
        </mxCell>
        <mxCell id="3Rabenk_TvTgjoeYO5HY-15" value="" style="edgeStyle=orthogonalEdgeStyle;rounded=0;orthogonalLoop=1;jettySize=auto;html=1;" parent="1" source="3Rabenk_TvTgjoeYO5HY-3" target="3Rabenk_TvTgjoeYO5HY-22" edge="1">
          <mxGeometry x="-0.3953" y="1" relative="1" as="geometry">
            <mxPoint x="443.9200000000001" y="340" as="targetPoint" />
            <mxPoint as="offset" />
          </mxGeometry>
        </mxCell>
        <mxCell id="3Rabenk_TvTgjoeYO5HY-35" value="&lt;div&gt;Websocket&lt;/div&gt;&lt;div&gt;&amp;amp;&lt;/div&gt;&lt;div&gt;https&lt;br&gt;&lt;/div&gt;" style="edgeStyle=orthogonalEdgeStyle;rounded=0;orthogonalLoop=1;jettySize=auto;html=1;" parent="1" source="3Rabenk_TvTgjoeYO5HY-3" target="3Rabenk_TvTgjoeYO5HY-23" edge="1">
          <mxGeometry x="0.5332" relative="1" as="geometry">
            <mxPoint as="offset" />
          </mxGeometry>
        </mxCell>
        <mxCell id="3Rabenk_TvTgjoeYO5HY-3" value="" style="verticalLabelPosition=bottom;html=1;verticalAlign=top;align=center;strokeColor=none;fillColor=#00BEF2;shape=mxgraph.azure.computer;pointerEvents=1;" parent="1" vertex="1">
          <mxGeometry x="513.9200000000001" y="202.5" width="50" height="45" as="geometry" />
        </mxCell>
        <mxCell id="3Rabenk_TvTgjoeYO5HY-12" style="edgeStyle=orthogonalEdgeStyle;rounded=0;orthogonalLoop=1;jettySize=auto;html=1;" parent="1" target="3Rabenk_TvTgjoeYO5HY-11" edge="1">
          <mxGeometry relative="1" as="geometry">
            <mxPoint x="412.6100000000001" y="492" as="sourcePoint" />
            <mxPoint x="260" y="492" as="targetPoint" />
          </mxGeometry>
        </mxCell>
        <mxCell id="3Rabenk_TvTgjoeYO5HY-13" style="edgeStyle=orthogonalEdgeStyle;rounded=0;orthogonalLoop=1;jettySize=auto;html=1;" parent="1" target="3Rabenk_TvTgjoeYO5HY-6" edge="1">
          <mxGeometry relative="1" as="geometry">
            <mxPoint x="443.9000000000001" y="522" as="sourcePoint" />
          </mxGeometry>
        </mxCell>
        <mxCell id="3Rabenk_TvTgjoeYO5HY-21" style="edgeStyle=orthogonalEdgeStyle;rounded=0;orthogonalLoop=1;jettySize=auto;html=1;" parent="1" target="oSXkyPepuuRLRuca3H6n-1" edge="1">
          <mxGeometry relative="1" as="geometry">
            <mxPoint x="475.22" y="492" as="sourcePoint" />
            <mxPoint x="580" y="492" as="targetPoint" />
          </mxGeometry>
        </mxCell>
        <mxCell id="3Rabenk_TvTgjoeYO5HY-4" value="ALB" style="verticalLabelPosition=bottom;html=1;verticalAlign=top;strokeWidth=1;align=center;outlineConnect=0;dashed=0;outlineConnect=0;shape=mxgraph.aws3d.elasticLoadBalancing;fillColor=#ECECEC;strokeColor=#5E5E5E;aspect=fixed;" parent="1" vertex="1">
          <mxGeometry x="412.61" y="460" width="62.61" height="60" as="geometry" />
        </mxCell>
        <mxCell id="3Rabenk_TvTgjoeYO5HY-20" style="edgeStyle=orthogonalEdgeStyle;rounded=0;orthogonalLoop=1;jettySize=auto;html=1;exitX=0.75;exitY=0;exitDx=0;exitDy=0;" parent="1" source="3Rabenk_TvTgjoeYO5HY-6" target="oSXkyPepuuRLRuca3H6n-1" edge="1">
          <mxGeometry relative="1" as="geometry">
            <mxPoint x="605" y="513" as="targetPoint" />
          </mxGeometry>
        </mxCell>
        <mxCell id="3Rabenk_TvTgjoeYO5HY-6" value="EKS Cluster Multi-region" style="rounded=0;whiteSpace=wrap;html=1;dashed=1;align=left;verticalAlign=top;" parent="1" vertex="1">
          <mxGeometry x="121.42" y="590" width="645" height="121" as="geometry" />
        </mxCell>
        <mxCell id="3Rabenk_TvTgjoeYO5HY-7" value="Accounts" style="aspect=fixed;sketch=0;html=1;dashed=0;whitespace=wrap;fillColor=#2875E2;strokeColor=#ffffff;points=[[0.005,0.63,0],[0.1,0.2,0],[0.9,0.2,0],[0.5,0,0],[0.995,0.63,0],[0.72,0.99,0],[0.5,1,0],[0.28,0.99,0]];shape=mxgraph.kubernetes.icon2;prIcon=pod;labelPosition=center;verticalLabelPosition=bottom;align=center;verticalAlign=top;" parent="1" vertex="1">
          <mxGeometry x="213.92" y="617" width="50" height="48" as="geometry" />
        </mxCell>
        <mxCell id="3Rabenk_TvTgjoeYO5HY-8" value="Leader boards" style="aspect=fixed;sketch=0;html=1;dashed=0;whitespace=wrap;fillColor=#2875E2;strokeColor=#ffffff;points=[[0.005,0.63,0],[0.1,0.2,0],[0.9,0.2,0],[0.5,0,0],[0.995,0.63,0],[0.72,0.99,0],[0.5,1,0],[0.28,0.99,0]];shape=mxgraph.kubernetes.icon2;prIcon=pod;labelPosition=center;verticalLabelPosition=bottom;align=center;verticalAlign=top;" parent="1" vertex="1">
          <mxGeometry x="356.53000000000003" y="617" width="50" height="48" as="geometry" />
        </mxCell>
        <mxCell id="3Rabenk_TvTgjoeYO5HY-9" value="Quizz" style="aspect=fixed;sketch=0;html=1;dashed=0;whitespace=wrap;fillColor=#2875E2;strokeColor=#ffffff;points=[[0.005,0.63,0],[0.1,0.2,0],[0.9,0.2,0],[0.5,0,0],[0.995,0.63,0],[0.72,0.99,0],[0.5,1,0],[0.28,0.99,0]];shape=mxgraph.kubernetes.icon2;prIcon=pod;labelPosition=center;verticalLabelPosition=bottom;align=center;verticalAlign=top;" parent="1" vertex="1">
          <mxGeometry x="493.92" y="617" width="50" height="48" as="geometry" />
        </mxCell>
        <mxCell id="3Rabenk_TvTgjoeYO5HY-10" value="Trivia" style="aspect=fixed;sketch=0;html=1;dashed=0;whitespace=wrap;fillColor=#2875E2;strokeColor=#ffffff;points=[[0.005,0.63,0],[0.1,0.2,0],[0.9,0.2,0],[0.5,0,0],[0.995,0.63,0],[0.72,0.99,0],[0.5,1,0],[0.28,0.99,0]];shape=mxgraph.kubernetes.icon2;prIcon=pod;labelPosition=center;verticalLabelPosition=bottom;align=center;verticalAlign=top;" parent="1" vertex="1">
          <mxGeometry x="623.92" y="617" width="50" height="48" as="geometry" />
        </mxCell>
        <mxCell id="3Rabenk_TvTgjoeYO5HY-11" value="Authorization&lt;br&gt;Authentication" style="outlineConnect=0;dashed=0;verticalLabelPosition=bottom;verticalAlign=top;align=center;html=1;shape=mxgraph.aws3.cognito;fillColor=#AD688B;gradientColor=none;" parent="1" vertex="1">
          <mxGeometry x="220" y="466" width="50" height="54" as="geometry" />
        </mxCell>
        <mxCell id="3Rabenk_TvTgjoeYO5HY-37" style="edgeStyle=orthogonalEdgeStyle;rounded=0;orthogonalLoop=1;jettySize=auto;html=1;" parent="1" source="3Rabenk_TvTgjoeYO5HY-22" target="3Rabenk_TvTgjoeYO5HY-4" edge="1">
          <mxGeometry relative="1" as="geometry" />
        </mxCell>
        <mxCell id="3Rabenk_TvTgjoeYO5HY-22" value="CloudFront" style="outlineConnect=0;dashed=0;verticalLabelPosition=bottom;verticalAlign=top;align=center;html=1;shape=mxgraph.aws3.cloudfront;fillColor=#F58536;gradientColor=none;" parent="1" vertex="1">
          <mxGeometry x="518.92" y="355" width="40" height="50" as="geometry" />
        </mxCell>
        <mxCell id="3Rabenk_TvTgjoeYO5HY-25" style="edgeStyle=orthogonalEdgeStyle;rounded=0;orthogonalLoop=1;jettySize=auto;html=1;" parent="1" source="3Rabenk_TvTgjoeYO5HY-23" target="3Rabenk_TvTgjoeYO5HY-4" edge="1">
          <mxGeometry relative="1" as="geometry" />
        </mxCell>
        <mxCell id="3Rabenk_TvTgjoeYO5HY-23" value="API Gateway" style="outlineConnect=0;dashed=0;verticalLabelPosition=bottom;verticalAlign=top;align=center;html=1;shape=mxgraph.aws3.api_gateway;fillColor=#D9A741;gradientColor=none;" parent="1" vertex="1">
          <mxGeometry x="314.03" y="350" width="50" height="60" as="geometry" />
        </mxCell>
        <mxCell id="3Rabenk_TvTgjoeYO5HY-26" value="RDS MySQL replica cross-region" style="rounded=0;whiteSpace=wrap;html=1;dashed=1;align=left;verticalAlign=top;" parent="1" vertex="1">
          <mxGeometry x="121.42000000000002" y="749" width="645" height="121" as="geometry" />
        </mxCell>
        <mxCell id="3Rabenk_TvTgjoeYO5HY-27" value="Accounts" style="html=1;verticalLabelPosition=bottom;align=center;labelBackgroundColor=#ffffff;verticalAlign=top;strokeWidth=2;strokeColor=#0080F0;shadow=0;dashed=0;shape=mxgraph.ios7.icons.data;" parent="1" vertex="1">
          <mxGeometry x="218.92" y="786.98" width="40" height="45.05" as="geometry" />
        </mxCell>
        <mxCell id="3Rabenk_TvTgjoeYO5HY-28" value="Leader boards" style="html=1;verticalLabelPosition=bottom;align=center;labelBackgroundColor=#ffffff;verticalAlign=top;strokeWidth=2;strokeColor=#0080F0;shadow=0;dashed=0;shape=mxgraph.ios7.icons.data;" parent="1" vertex="1">
          <mxGeometry x="361.53" y="786.97" width="40" height="45.05" as="geometry" />
        </mxCell>
        <mxCell id="3Rabenk_TvTgjoeYO5HY-29" style="edgeStyle=orthogonalEdgeStyle;rounded=0;orthogonalLoop=1;jettySize=auto;html=1;" parent="1" source="3Rabenk_TvTgjoeYO5HY-7" target="3Rabenk_TvTgjoeYO5HY-27" edge="1">
          <mxGeometry relative="1" as="geometry" />
        </mxCell>
        <mxCell id="3Rabenk_TvTgjoeYO5HY-30" style="edgeStyle=orthogonalEdgeStyle;rounded=0;orthogonalLoop=1;jettySize=auto;html=1;" parent="1" source="3Rabenk_TvTgjoeYO5HY-8" target="3Rabenk_TvTgjoeYO5HY-28" edge="1">
          <mxGeometry relative="1" as="geometry" />
        </mxCell>
        <mxCell id="3Rabenk_TvTgjoeYO5HY-31" value="Quizz" style="html=1;verticalLabelPosition=bottom;align=center;labelBackgroundColor=#ffffff;verticalAlign=top;strokeWidth=2;strokeColor=#0080F0;shadow=0;dashed=0;shape=mxgraph.ios7.icons.data;" parent="1" vertex="1">
          <mxGeometry x="498.91999999999996" y="786.98" width="40" height="45.05" as="geometry" />
        </mxCell>
        <mxCell id="3Rabenk_TvTgjoeYO5HY-32" value="Trivia" style="html=1;verticalLabelPosition=bottom;align=center;labelBackgroundColor=#ffffff;verticalAlign=top;strokeWidth=2;strokeColor=#0080F0;shadow=0;dashed=0;shape=mxgraph.ios7.icons.data;" parent="1" vertex="1">
          <mxGeometry x="628.92" y="786.98" width="40" height="45.05" as="geometry" />
        </mxCell>
        <mxCell id="3Rabenk_TvTgjoeYO5HY-34" style="edgeStyle=orthogonalEdgeStyle;rounded=0;orthogonalLoop=1;jettySize=auto;html=1;" parent="1" source="3Rabenk_TvTgjoeYO5HY-10" target="3Rabenk_TvTgjoeYO5HY-32" edge="1">
          <mxGeometry relative="1" as="geometry" />
        </mxCell>
        <mxCell id="3Rabenk_TvTgjoeYO5HY-33" style="edgeStyle=orthogonalEdgeStyle;rounded=0;orthogonalLoop=1;jettySize=auto;html=1;" parent="1" source="3Rabenk_TvTgjoeYO5HY-9" target="3Rabenk_TvTgjoeYO5HY-31" edge="1">
          <mxGeometry relative="1" as="geometry" />
        </mxCell>
        <mxCell id="oSXkyPepuuRLRuca3H6n-1" value="Cache" style="outlineConnect=0;dashed=0;verticalLabelPosition=bottom;verticalAlign=top;align=center;html=1;shape=mxgraph.aws3.elasticache;fillColor=#2E73B8;gradientColor=none;" parent="1" vertex="1">
          <mxGeometry x="580" y="462.75" width="50" height="60.5" as="geometry" />
        </mxCell>
      </root>
    </mxGraphModel>
  </diagram>
  <diagram id="4ATF6Q3ik_dKIIMckpa7" name="deploy-diagram">
    <mxGraphModel dx="1274" dy="728" grid="1" gridSize="10" guides="1" tooltips="1" connect="1" arrows="1" fold="1" page="1" pageScale="1" pageWidth="827" pageHeight="1169" math="0" shadow="0">
      <root>
        <mxCell id="0" />
        <mxCell id="1" parent="0" />
        <mxCell id="8tFkrcO33CcUCP401XbQ-1" style="edgeStyle=orthogonalEdgeStyle;rounded=0;orthogonalLoop=1;jettySize=auto;html=1;endArrow=none;endFill=0;" parent="1" source="8tFkrcO33CcUCP401XbQ-2" target="8tFkrcO33CcUCP401XbQ-22" edge="1">
          <mxGeometry relative="1" as="geometry" />
        </mxCell>
        <mxCell id="8tFkrcO33CcUCP401XbQ-2" value="" style="verticalAlign=top;align=left;spacingTop=8;spacingLeft=2;spacingRight=12;shape=cube;size=10;direction=south;fontStyle=4;html=1;" parent="1" vertex="1">
          <mxGeometry x="850" y="870" width="420" height="170" as="geometry" />
        </mxCell>
        <mxCell id="8tFkrcO33CcUCP401XbQ-3" style="edgeStyle=orthogonalEdgeStyle;rounded=0;orthogonalLoop=1;jettySize=auto;html=1;endArrow=none;endFill=0;" parent="1" source="8tFkrcO33CcUCP401XbQ-4" target="8tFkrcO33CcUCP401XbQ-22" edge="1">
          <mxGeometry relative="1" as="geometry" />
        </mxCell>
        <mxCell id="8tFkrcO33CcUCP401XbQ-4" value="" style="verticalAlign=top;align=left;spacingTop=8;spacingLeft=2;spacingRight=12;shape=cube;size=10;direction=south;fontStyle=4;html=1;" parent="1" vertex="1">
          <mxGeometry x="850" y="660" width="420" height="170" as="geometry" />
        </mxCell>
        <mxCell id="8tFkrcO33CcUCP401XbQ-5" style="edgeStyle=orthogonalEdgeStyle;rounded=0;orthogonalLoop=1;jettySize=auto;html=1;endArrow=none;endFill=0;" parent="1" source="8tFkrcO33CcUCP401XbQ-6" target="8tFkrcO33CcUCP401XbQ-22" edge="1">
          <mxGeometry relative="1" as="geometry" />
        </mxCell>
        <mxCell id="8tFkrcO33CcUCP401XbQ-6" value="" style="verticalAlign=top;align=left;spacingTop=8;spacingLeft=2;spacingRight=12;shape=cube;size=10;direction=south;fontStyle=4;html=1;" parent="1" vertex="1">
          <mxGeometry x="100" y="870" width="440" height="170" as="geometry" />
        </mxCell>
        <mxCell id="8tFkrcO33CcUCP401XbQ-7" style="edgeStyle=orthogonalEdgeStyle;rounded=0;orthogonalLoop=1;jettySize=auto;html=1;endArrow=none;endFill=0;" parent="1" source="8tFkrcO33CcUCP401XbQ-8" target="8tFkrcO33CcUCP401XbQ-22" edge="1">
          <mxGeometry relative="1" as="geometry" />
        </mxCell>
        <mxCell id="8tFkrcO33CcUCP401XbQ-8" value="" style="verticalAlign=top;align=left;spacingTop=8;spacingLeft=2;spacingRight=12;shape=cube;size=10;direction=south;fontStyle=4;html=1;" parent="1" vertex="1">
          <mxGeometry x="100" y="670" width="440" height="170" as="geometry" />
        </mxCell>
        <mxCell id="8tFkrcO33CcUCP401XbQ-9" style="edgeStyle=orthogonalEdgeStyle;rounded=0;orthogonalLoop=1;jettySize=auto;html=1;endArrow=none;endFill=0;" parent="1" source="8tFkrcO33CcUCP401XbQ-10" target="8tFkrcO33CcUCP401XbQ-27" edge="1">
          <mxGeometry relative="1" as="geometry">
            <mxPoint x="350" y="756" as="targetPoint" />
          </mxGeometry>
        </mxCell>
        <mxCell id="8tFkrcO33CcUCP401XbQ-10" value="accounts.jar" style="html=1;dropTarget=0;" parent="1" vertex="1">
          <mxGeometry x="130" y="711" width="180" height="90" as="geometry" />
        </mxCell>
        <mxCell id="8tFkrcO33CcUCP401XbQ-11" value="" style="shape=module;jettyWidth=8;jettyHeight=4;" parent="8tFkrcO33CcUCP401XbQ-10" vertex="1">
          <mxGeometry x="1" width="20" height="20" relative="1" as="geometry">
            <mxPoint x="-27" y="7" as="offset" />
          </mxGeometry>
        </mxCell>
        <mxCell id="8tFkrcO33CcUCP401XbQ-12" style="edgeStyle=orthogonalEdgeStyle;rounded=0;orthogonalLoop=1;jettySize=auto;html=1;endArrow=none;endFill=0;" parent="1" source="8tFkrcO33CcUCP401XbQ-13" target="8tFkrcO33CcUCP401XbQ-24" edge="1">
          <mxGeometry relative="1" as="geometry">
            <mxPoint x="350" y="955" as="targetPoint" />
          </mxGeometry>
        </mxCell>
        <mxCell id="8tFkrcO33CcUCP401XbQ-13" value="leader-boards.jar" style="html=1;dropTarget=0;" parent="1" vertex="1">
          <mxGeometry x="130" y="910" width="180" height="90" as="geometry" />
        </mxCell>
        <mxCell id="8tFkrcO33CcUCP401XbQ-14" value="" style="shape=module;jettyWidth=8;jettyHeight=4;" parent="8tFkrcO33CcUCP401XbQ-13" vertex="1">
          <mxGeometry x="1" width="20" height="20" relative="1" as="geometry">
            <mxPoint x="-27" y="7" as="offset" />
          </mxGeometry>
        </mxCell>
        <mxCell id="8tFkrcO33CcUCP401XbQ-15" style="edgeStyle=orthogonalEdgeStyle;rounded=0;orthogonalLoop=1;jettySize=auto;html=1;endArrow=none;endFill=0;" parent="1" source="8tFkrcO33CcUCP401XbQ-16" target="8tFkrcO33CcUCP401XbQ-30" edge="1">
          <mxGeometry relative="1" as="geometry">
            <mxPoint x="1110" y="745" as="targetPoint" />
          </mxGeometry>
        </mxCell>
        <mxCell id="8tFkrcO33CcUCP401XbQ-16" value="quizz.jar" style="html=1;dropTarget=0;" parent="1" vertex="1">
          <mxGeometry x="880" y="700" width="180" height="90" as="geometry" />
        </mxCell>
        <mxCell id="8tFkrcO33CcUCP401XbQ-17" value="" style="shape=module;jettyWidth=8;jettyHeight=4;" parent="8tFkrcO33CcUCP401XbQ-16" vertex="1">
          <mxGeometry x="1" width="20" height="20" relative="1" as="geometry">
            <mxPoint x="-27" y="7" as="offset" />
          </mxGeometry>
        </mxCell>
        <mxCell id="8tFkrcO33CcUCP401XbQ-18" style="edgeStyle=orthogonalEdgeStyle;rounded=0;orthogonalLoop=1;jettySize=auto;html=1;endArrow=none;endFill=0;" parent="1" source="8tFkrcO33CcUCP401XbQ-19" target="8tFkrcO33CcUCP401XbQ-33" edge="1">
          <mxGeometry relative="1" as="geometry">
            <mxPoint x="1120" y="955" as="targetPoint" />
          </mxGeometry>
        </mxCell>
        <mxCell id="8tFkrcO33CcUCP401XbQ-19" value="trivia.jar" style="html=1;dropTarget=0;" parent="1" vertex="1">
          <mxGeometry x="880" y="910" width="180" height="90" as="geometry" />
        </mxCell>
        <mxCell id="8tFkrcO33CcUCP401XbQ-20" value="" style="shape=module;jettyWidth=8;jettyHeight=4;" parent="8tFkrcO33CcUCP401XbQ-19" vertex="1">
          <mxGeometry x="1" width="20" height="20" relative="1" as="geometry">
            <mxPoint x="-27" y="7" as="offset" />
          </mxGeometry>
        </mxCell>
        <mxCell id="8tFkrcO33CcUCP401XbQ-21" style="edgeStyle=orthogonalEdgeStyle;rounded=0;orthogonalLoop=1;jettySize=auto;html=1;endArrow=none;endFill=0;" parent="1" source="8tFkrcO33CcUCP401XbQ-22" target="8tFkrcO33CcUCP401XbQ-23" edge="1">
          <mxGeometry relative="1" as="geometry" />
        </mxCell>
        <mxCell id="8tFkrcO33CcUCP401XbQ-22" value="Docker Registry" style="verticalAlign=top;align=left;spacingTop=8;spacingLeft=2;spacingRight=12;shape=cube;size=10;direction=south;fontStyle=4;html=1;" parent="1" vertex="1">
          <mxGeometry x="610" y="801" width="180" height="120" as="geometry" />
        </mxCell>
        <mxCell id="8tFkrcO33CcUCP401XbQ-23" value="App container management" style="verticalAlign=top;align=left;spacingTop=8;spacingLeft=2;spacingRight=12;shape=cube;size=10;direction=south;fontStyle=4;html=1;" parent="1" vertex="1">
          <mxGeometry x="610" y="1040" width="180" height="120" as="geometry" />
        </mxCell>
        <mxCell id="8tFkrcO33CcUCP401XbQ-24" value="Deployment spec" style="swimlane;fontStyle=0;childLayout=stackLayout;horizontal=1;startSize=26;fillColor=none;horizontalStack=0;resizeParent=1;resizeParentMax=0;resizeLast=0;collapsible=1;marginBottom=0;" parent="1" vertex="1">
          <mxGeometry x="360" y="916" width="140" height="78" as="geometry" />
        </mxCell>
        <mxCell id="8tFkrcO33CcUCP401XbQ-25" value="Dockerfile" style="text;strokeColor=none;fillColor=none;align=left;verticalAlign=top;spacingLeft=4;spacingRight=4;overflow=hidden;rotatable=0;points=[[0,0.5],[1,0.5]];portConstraint=eastwest;" parent="8tFkrcO33CcUCP401XbQ-24" vertex="1">
          <mxGeometry y="26" width="140" height="26" as="geometry" />
        </mxCell>
        <mxCell id="8tFkrcO33CcUCP401XbQ-26" value="deployment.json" style="text;strokeColor=none;fillColor=none;align=left;verticalAlign=top;spacingLeft=4;spacingRight=4;overflow=hidden;rotatable=0;points=[[0,0.5],[1,0.5]];portConstraint=eastwest;" parent="8tFkrcO33CcUCP401XbQ-24" vertex="1">
          <mxGeometry y="52" width="140" height="26" as="geometry" />
        </mxCell>
        <mxCell id="8tFkrcO33CcUCP401XbQ-27" value="Deployment spec" style="swimlane;fontStyle=0;childLayout=stackLayout;horizontal=1;startSize=26;fillColor=none;horizontalStack=0;resizeParent=1;resizeParentMax=0;resizeLast=0;collapsible=1;marginBottom=0;" parent="1" vertex="1">
          <mxGeometry x="360" y="717" width="140" height="78" as="geometry" />
        </mxCell>
        <mxCell id="8tFkrcO33CcUCP401XbQ-28" value="Dockerfile" style="text;strokeColor=none;fillColor=none;align=left;verticalAlign=top;spacingLeft=4;spacingRight=4;overflow=hidden;rotatable=0;points=[[0,0.5],[1,0.5]];portConstraint=eastwest;" parent="8tFkrcO33CcUCP401XbQ-27" vertex="1">
          <mxGeometry y="26" width="140" height="26" as="geometry" />
        </mxCell>
        <mxCell id="8tFkrcO33CcUCP401XbQ-29" value="deployment.json" style="text;strokeColor=none;fillColor=none;align=left;verticalAlign=top;spacingLeft=4;spacingRight=4;overflow=hidden;rotatable=0;points=[[0,0.5],[1,0.5]];portConstraint=eastwest;" parent="8tFkrcO33CcUCP401XbQ-27" vertex="1">
          <mxGeometry y="52" width="140" height="26" as="geometry" />
        </mxCell>
        <mxCell id="8tFkrcO33CcUCP401XbQ-30" value="Deployment spec" style="swimlane;fontStyle=0;childLayout=stackLayout;horizontal=1;startSize=26;fillColor=none;horizontalStack=0;resizeParent=1;resizeParentMax=0;resizeLast=0;collapsible=1;marginBottom=0;" parent="1" vertex="1">
          <mxGeometry x="1100" y="706" width="140" height="78" as="geometry" />
        </mxCell>
        <mxCell id="8tFkrcO33CcUCP401XbQ-31" value="Dockerfile" style="text;strokeColor=none;fillColor=none;align=left;verticalAlign=top;spacingLeft=4;spacingRight=4;overflow=hidden;rotatable=0;points=[[0,0.5],[1,0.5]];portConstraint=eastwest;" parent="8tFkrcO33CcUCP401XbQ-30" vertex="1">
          <mxGeometry y="26" width="140" height="26" as="geometry" />
        </mxCell>
        <mxCell id="8tFkrcO33CcUCP401XbQ-32" value="deployment.json" style="text;strokeColor=none;fillColor=none;align=left;verticalAlign=top;spacingLeft=4;spacingRight=4;overflow=hidden;rotatable=0;points=[[0,0.5],[1,0.5]];portConstraint=eastwest;" parent="8tFkrcO33CcUCP401XbQ-30" vertex="1">
          <mxGeometry y="52" width="140" height="26" as="geometry" />
        </mxCell>
        <mxCell id="8tFkrcO33CcUCP401XbQ-33" value="Deployment spec" style="swimlane;fontStyle=0;childLayout=stackLayout;horizontal=1;startSize=26;fillColor=none;horizontalStack=0;resizeParent=1;resizeParentMax=0;resizeLast=0;collapsible=1;marginBottom=0;" parent="1" vertex="1">
          <mxGeometry x="1100" y="916" width="140" height="78" as="geometry" />
        </mxCell>
        <mxCell id="8tFkrcO33CcUCP401XbQ-34" value="Dockerfile" style="text;strokeColor=none;fillColor=none;align=left;verticalAlign=top;spacingLeft=4;spacingRight=4;overflow=hidden;rotatable=0;points=[[0,0.5],[1,0.5]];portConstraint=eastwest;" parent="8tFkrcO33CcUCP401XbQ-33" vertex="1">
          <mxGeometry y="26" width="140" height="26" as="geometry" />
        </mxCell>
        <mxCell id="8tFkrcO33CcUCP401XbQ-35" value="deployment.json" style="text;strokeColor=none;fillColor=none;align=left;verticalAlign=top;spacingLeft=4;spacingRight=4;overflow=hidden;rotatable=0;points=[[0,0.5],[1,0.5]];portConstraint=eastwest;" parent="8tFkrcO33CcUCP401XbQ-33" vertex="1">
          <mxGeometry y="52" width="140" height="26" as="geometry" />
        </mxCell>
      </root>
    </mxGraphModel>
  </diagram>
  <diagram id="82KEPswAPFt1_MDnweJB" name="send-message-usecase">
    <mxGraphModel dx="1274" dy="1706" grid="1" gridSize="10" guides="1" tooltips="1" connect="1" arrows="1" fold="1" page="1" pageScale="1" pageWidth="827" pageHeight="1169" math="0" shadow="0">
      <root>
        <mxCell id="0" />
        <mxCell id="1" parent="0" />
        <mxCell id="w24eweOdgsh9iJiqZDyV-1" value="Send message" style="rounded=0;whiteSpace=wrap;html=1;verticalAlign=top;fontSize=18;" parent="1" vertex="1">
          <mxGeometry x="360" y="110" width="250" height="560" as="geometry" />
        </mxCell>
        <mxCell id="w24eweOdgsh9iJiqZDyV-2" style="edgeStyle=orthogonalEdgeStyle;rounded=0;orthogonalLoop=1;jettySize=auto;html=1;entryX=0;entryY=0.5;entryDx=0;entryDy=0;curved=1;endArrow=none;endFill=0;" parent="1" source="0K6ux7_6yTh-WWyE5Jfd-1" target="0K6ux7_6yTh-WWyE5Jfd-2" edge="1">
          <mxGeometry relative="1" as="geometry" />
        </mxCell>
        <mxCell id="0K6ux7_6yTh-WWyE5Jfd-1" value="User A" style="shape=umlActor;verticalLabelPosition=bottom;verticalAlign=top;html=1;outlineConnect=0;" parent="1" vertex="1">
          <mxGeometry x="210" y="340" width="30" height="60" as="geometry" />
        </mxCell>
        <mxCell id="0K6ux7_6yTh-WWyE5Jfd-2" value="Log In" style="ellipse;whiteSpace=wrap;html=1;" parent="1" vertex="1">
          <mxGeometry x="420" y="190" width="120" height="60" as="geometry" />
        </mxCell>
        <mxCell id="w24eweOdgsh9iJiqZDyV-3" value="Search for friend" style="ellipse;whiteSpace=wrap;html=1;" parent="1" vertex="1">
          <mxGeometry x="420" y="280" width="120" height="60" as="geometry" />
        </mxCell>
        <mxCell id="w24eweOdgsh9iJiqZDyV-4" value="Open chat" style="ellipse;whiteSpace=wrap;html=1;" parent="1" vertex="1">
          <mxGeometry x="420" y="370" width="120" height="60" as="geometry" />
        </mxCell>
        <mxCell id="w24eweOdgsh9iJiqZDyV-5" value="Type message" style="ellipse;whiteSpace=wrap;html=1;" parent="1" vertex="1">
          <mxGeometry x="420" y="460" width="120" height="60" as="geometry" />
        </mxCell>
        <mxCell id="w24eweOdgsh9iJiqZDyV-6" value="Send message" style="ellipse;whiteSpace=wrap;html=1;" parent="1" vertex="1">
          <mxGeometry x="420" y="550" width="120" height="60" as="geometry" />
        </mxCell>
        <mxCell id="w24eweOdgsh9iJiqZDyV-8" style="edgeStyle=orthogonalEdgeStyle;rounded=0;orthogonalLoop=1;jettySize=auto;html=1;curved=1;endArrow=none;endFill=0;" parent="1" source="0K6ux7_6yTh-WWyE5Jfd-1" target="w24eweOdgsh9iJiqZDyV-3" edge="1">
          <mxGeometry relative="1" as="geometry">
            <mxPoint x="250" y="330" as="sourcePoint" />
            <mxPoint x="430" y="230" as="targetPoint" />
          </mxGeometry>
        </mxCell>
        <mxCell id="w24eweOdgsh9iJiqZDyV-9" style="edgeStyle=orthogonalEdgeStyle;rounded=0;orthogonalLoop=1;jettySize=auto;html=1;entryX=0;entryY=0.5;entryDx=0;entryDy=0;curved=1;endArrow=none;endFill=0;" parent="1" source="0K6ux7_6yTh-WWyE5Jfd-1" target="w24eweOdgsh9iJiqZDyV-4" edge="1">
          <mxGeometry relative="1" as="geometry">
            <mxPoint x="260" y="340" as="sourcePoint" />
            <mxPoint x="440" y="240" as="targetPoint" />
          </mxGeometry>
        </mxCell>
        <mxCell id="w24eweOdgsh9iJiqZDyV-10" style="edgeStyle=orthogonalEdgeStyle;rounded=0;orthogonalLoop=1;jettySize=auto;html=1;entryX=0;entryY=0.5;entryDx=0;entryDy=0;curved=1;endArrow=none;endFill=0;" parent="1" source="0K6ux7_6yTh-WWyE5Jfd-1" target="w24eweOdgsh9iJiqZDyV-5" edge="1">
          <mxGeometry relative="1" as="geometry">
            <mxPoint x="270" y="350" as="sourcePoint" />
            <mxPoint x="450" y="250" as="targetPoint" />
          </mxGeometry>
        </mxCell>
        <mxCell id="w24eweOdgsh9iJiqZDyV-11" style="edgeStyle=orthogonalEdgeStyle;rounded=0;orthogonalLoop=1;jettySize=auto;html=1;entryX=0;entryY=0.5;entryDx=0;entryDy=0;curved=1;endArrow=none;endFill=0;" parent="1" source="0K6ux7_6yTh-WWyE5Jfd-1" target="w24eweOdgsh9iJiqZDyV-6" edge="1">
          <mxGeometry relative="1" as="geometry">
            <mxPoint x="280" y="360" as="sourcePoint" />
            <mxPoint x="460" y="260" as="targetPoint" />
          </mxGeometry>
        </mxCell>
      </root>
    </mxGraphModel>
  </diagram>
  <diagram id="9gYx9qnNcNgPiOffMVBm" name="send-message-service-class-diagram">
    <mxGraphModel dx="1274" dy="1706" grid="1" gridSize="10" guides="1" tooltips="1" connect="1" arrows="1" fold="1" page="1" pageScale="1" pageWidth="827" pageHeight="1169" math="0" shadow="0">
      <root>
        <mxCell id="0" />
        <mxCell id="1" parent="0" />
        <mxCell id="xTYQACZsR914-nS0ampq-1" value="Message" style="swimlane;fontStyle=1;align=center;verticalAlign=top;childLayout=stackLayout;horizontal=1;startSize=26;horizontalStack=0;resizeParent=1;resizeParentMax=0;resizeLast=0;collapsible=1;marginBottom=0;whiteSpace=wrap;html=1;" vertex="1" parent="1">
          <mxGeometry x="599" y="531" width="160" height="134" as="geometry" />
        </mxCell>
        <mxCell id="xTYQACZsR914-nS0ampq-2" value="- content: String&lt;br&gt;- from: String&lt;br&gt;- to: String&lt;br&gt;- date: Date" style="text;strokeColor=none;fillColor=none;align=left;verticalAlign=top;spacingLeft=4;spacingRight=4;overflow=hidden;rotatable=0;points=[[0,0.5],[1,0.5]];portConstraint=eastwest;whiteSpace=wrap;html=1;" vertex="1" parent="xTYQACZsR914-nS0ampq-1">
          <mxGeometry y="26" width="160" height="74" as="geometry" />
        </mxCell>
        <mxCell id="xTYQACZsR914-nS0ampq-3" value="" style="line;strokeWidth=1;fillColor=none;align=left;verticalAlign=middle;spacingTop=-1;spacingLeft=3;spacingRight=3;rotatable=0;labelPosition=right;points=[];portConstraint=eastwest;strokeColor=inherit;" vertex="1" parent="xTYQACZsR914-nS0ampq-1">
          <mxGeometry y="100" width="160" height="8" as="geometry" />
        </mxCell>
        <mxCell id="xTYQACZsR914-nS0ampq-4" value="&amp;nbsp;" style="text;strokeColor=none;fillColor=none;align=left;verticalAlign=top;spacingLeft=4;spacingRight=4;overflow=hidden;rotatable=0;points=[[0,0.5],[1,0.5]];portConstraint=eastwest;whiteSpace=wrap;html=1;" vertex="1" parent="xTYQACZsR914-nS0ampq-1">
          <mxGeometry y="108" width="160" height="26" as="geometry" />
        </mxCell>
        <mxCell id="xTYQACZsR914-nS0ampq-5" value="IncomingMessageHandler" style="swimlane;fontStyle=1;align=center;verticalAlign=top;childLayout=stackLayout;horizontal=1;startSize=26;horizontalStack=0;resizeParent=1;resizeParentMax=0;resizeLast=0;collapsible=1;marginBottom=0;whiteSpace=wrap;html=1;" vertex="1" parent="1">
          <mxGeometry x="39" y="535" width="360" height="130" as="geometry" />
        </mxCell>
        <mxCell id="xTYQACZsR914-nS0ampq-6" value="- messageService: MessageService" style="text;strokeColor=none;fillColor=none;align=left;verticalAlign=top;spacingLeft=4;spacingRight=4;overflow=hidden;rotatable=0;points=[[0,0.5],[1,0.5]];portConstraint=eastwest;whiteSpace=wrap;html=1;" vertex="1" parent="xTYQACZsR914-nS0ampq-5">
          <mxGeometry y="26" width="360" height="26" as="geometry" />
        </mxCell>
        <mxCell id="xTYQACZsR914-nS0ampq-7" value="" style="line;strokeWidth=1;fillColor=none;align=left;verticalAlign=middle;spacingTop=-1;spacingLeft=3;spacingRight=3;rotatable=0;labelPosition=right;points=[];portConstraint=eastwest;strokeColor=inherit;" vertex="1" parent="xTYQACZsR914-nS0ampq-5">
          <mxGeometry y="52" width="360" height="8" as="geometry" />
        </mxCell>
        <mxCell id="xTYQACZsR914-nS0ampq-8" value="- captureCurrentUserId(): String&lt;br&gt;- sendTo(Message)&lt;br&gt;+&amp;nbsp; handleMessage(WebSocketSession, WebSocketMessage)" style="text;strokeColor=none;fillColor=none;align=left;verticalAlign=top;spacingLeft=4;spacingRight=4;overflow=hidden;rotatable=0;points=[[0,0.5],[1,0.5]];portConstraint=eastwest;whiteSpace=wrap;html=1;" vertex="1" parent="xTYQACZsR914-nS0ampq-5">
          <mxGeometry y="60" width="360" height="70" as="geometry" />
        </mxCell>
        <mxCell id="xTYQACZsR914-nS0ampq-9" value="MessageController" style="swimlane;fontStyle=1;align=center;verticalAlign=top;childLayout=stackLayout;horizontal=1;startSize=26;horizontalStack=0;resizeParent=1;resizeParentMax=0;resizeLast=0;collapsible=1;marginBottom=0;whiteSpace=wrap;html=1;" vertex="1" parent="1">
          <mxGeometry x="99" y="210" width="240" height="86" as="geometry" />
        </mxCell>
        <mxCell id="xTYQACZsR914-nS0ampq-10" value="- messageService: MessageService" style="text;strokeColor=none;fillColor=none;align=left;verticalAlign=top;spacingLeft=4;spacingRight=4;overflow=hidden;rotatable=0;points=[[0,0.5],[1,0.5]];portConstraint=eastwest;whiteSpace=wrap;html=1;" vertex="1" parent="xTYQACZsR914-nS0ampq-9">
          <mxGeometry y="26" width="240" height="26" as="geometry" />
        </mxCell>
        <mxCell id="xTYQACZsR914-nS0ampq-11" value="" style="line;strokeWidth=1;fillColor=none;align=left;verticalAlign=middle;spacingTop=-1;spacingLeft=3;spacingRight=3;rotatable=0;labelPosition=right;points=[];portConstraint=eastwest;strokeColor=inherit;" vertex="1" parent="xTYQACZsR914-nS0ampq-9">
          <mxGeometry y="52" width="240" height="8" as="geometry" />
        </mxCell>
        <mxCell id="xTYQACZsR914-nS0ampq-12" value="+ findAll(Page): List&amp;lt;MessageResponse&amp;gt;" style="text;strokeColor=none;fillColor=none;align=left;verticalAlign=top;spacingLeft=4;spacingRight=4;overflow=hidden;rotatable=0;points=[[0,0.5],[1,0.5]];portConstraint=eastwest;whiteSpace=wrap;html=1;" vertex="1" parent="xTYQACZsR914-nS0ampq-9">
          <mxGeometry y="60" width="240" height="26" as="geometry" />
        </mxCell>
        <mxCell id="xTYQACZsR914-nS0ampq-17" value="MessageRepository" style="swimlane;fontStyle=1;align=center;verticalAlign=top;childLayout=stackLayout;horizontal=1;startSize=26;horizontalStack=0;resizeParent=1;resizeParentMax=0;resizeLast=0;collapsible=1;marginBottom=0;whiteSpace=wrap;html=1;" vertex="1" parent="1">
          <mxGeometry x="569" y="395" width="220" height="60" as="geometry" />
        </mxCell>
        <mxCell id="xTYQACZsR914-nS0ampq-19" value="" style="line;strokeWidth=1;fillColor=none;align=left;verticalAlign=middle;spacingTop=-1;spacingLeft=3;spacingRight=3;rotatable=0;labelPosition=right;points=[];portConstraint=eastwest;strokeColor=inherit;" vertex="1" parent="xTYQACZsR914-nS0ampq-17">
          <mxGeometry y="26" width="220" height="8" as="geometry" />
        </mxCell>
        <mxCell id="xTYQACZsR914-nS0ampq-20" value="+ save(Message):String" style="text;strokeColor=none;fillColor=none;align=left;verticalAlign=top;spacingLeft=4;spacingRight=4;overflow=hidden;rotatable=0;points=[[0,0.5],[1,0.5]];portConstraint=eastwest;whiteSpace=wrap;html=1;" vertex="1" parent="xTYQACZsR914-nS0ampq-17">
          <mxGeometry y="34" width="220" height="26" as="geometry" />
        </mxCell>
        <mxCell id="xTYQACZsR914-nS0ampq-21" value="Use" style="endArrow=open;endSize=12;dashed=1;html=1;rounded=0;" edge="1" parent="1" source="xTYQACZsR914-nS0ampq-17" target="xTYQACZsR914-nS0ampq-1">
          <mxGeometry width="160" relative="1" as="geometry">
            <mxPoint x="379" y="860" as="sourcePoint" />
            <mxPoint x="539" y="860" as="targetPoint" />
          </mxGeometry>
        </mxCell>
        <mxCell id="xTYQACZsR914-nS0ampq-22" value="Use" style="endArrow=open;endSize=12;dashed=1;html=1;rounded=0;" edge="1" parent="1" source="xTYQACZsR914-nS0ampq-5" target="xTYQACZsR914-nS0ampq-32">
          <mxGeometry width="160" relative="1" as="geometry">
            <mxPoint x="729" y="536" as="sourcePoint" />
            <mxPoint x="729" y="429" as="targetPoint" />
          </mxGeometry>
        </mxCell>
        <mxCell id="xTYQACZsR914-nS0ampq-23" value="Use" style="endArrow=open;endSize=12;dashed=1;html=1;rounded=0;" edge="1" parent="1" source="xTYQACZsR914-nS0ampq-32" target="xTYQACZsR914-nS0ampq-17">
          <mxGeometry width="160" relative="1" as="geometry">
            <mxPoint x="739" y="546" as="sourcePoint" />
            <mxPoint x="739" y="439" as="targetPoint" />
          </mxGeometry>
        </mxCell>
        <mxCell id="xTYQACZsR914-nS0ampq-26" value="Use" style="endArrow=open;endSize=12;dashed=1;html=1;rounded=0;" edge="1" parent="1" source="xTYQACZsR914-nS0ampq-32" target="xTYQACZsR914-nS0ampq-1">
          <mxGeometry width="160" relative="1" as="geometry">
            <mxPoint x="769" y="576" as="sourcePoint" />
            <mxPoint x="769" y="469" as="targetPoint" />
          </mxGeometry>
        </mxCell>
        <mxCell id="xTYQACZsR914-nS0ampq-27" value="MessageResponse" style="swimlane;fontStyle=1;align=center;verticalAlign=top;childLayout=stackLayout;horizontal=1;startSize=26;horizontalStack=0;resizeParent=1;resizeParentMax=0;resizeLast=0;collapsible=1;marginBottom=0;whiteSpace=wrap;html=1;" vertex="1" parent="1">
          <mxGeometry x="599" y="191" width="160" height="124" as="geometry" />
        </mxCell>
        <mxCell id="xTYQACZsR914-nS0ampq-28" value="- content: String&lt;br&gt;- to: String&lt;br&gt;- date: Date" style="text;strokeColor=none;fillColor=none;align=left;verticalAlign=top;spacingLeft=4;spacingRight=4;overflow=hidden;rotatable=0;points=[[0,0.5],[1,0.5]];portConstraint=eastwest;whiteSpace=wrap;html=1;" vertex="1" parent="xTYQACZsR914-nS0ampq-27">
          <mxGeometry y="26" width="160" height="64" as="geometry" />
        </mxCell>
        <mxCell id="xTYQACZsR914-nS0ampq-29" value="" style="line;strokeWidth=1;fillColor=none;align=left;verticalAlign=middle;spacingTop=-1;spacingLeft=3;spacingRight=3;rotatable=0;labelPosition=right;points=[];portConstraint=eastwest;strokeColor=inherit;" vertex="1" parent="xTYQACZsR914-nS0ampq-27">
          <mxGeometry y="90" width="160" height="8" as="geometry" />
        </mxCell>
        <mxCell id="xTYQACZsR914-nS0ampq-30" value="&amp;nbsp;" style="text;strokeColor=none;fillColor=none;align=left;verticalAlign=top;spacingLeft=4;spacingRight=4;overflow=hidden;rotatable=0;points=[[0,0.5],[1,0.5]];portConstraint=eastwest;whiteSpace=wrap;html=1;" vertex="1" parent="xTYQACZsR914-nS0ampq-27">
          <mxGeometry y="98" width="160" height="26" as="geometry" />
        </mxCell>
        <mxCell id="xTYQACZsR914-nS0ampq-31" value="Use" style="endArrow=open;endSize=12;dashed=1;html=1;rounded=0;" edge="1" parent="1" source="xTYQACZsR914-nS0ampq-9" target="xTYQACZsR914-nS0ampq-27">
          <mxGeometry width="160" relative="1" as="geometry">
            <mxPoint x="349" y="263" as="sourcePoint" />
            <mxPoint x="429" y="263" as="targetPoint" />
          </mxGeometry>
        </mxCell>
        <mxCell id="xTYQACZsR914-nS0ampq-32" value="MessageService" style="swimlane;fontStyle=1;align=center;verticalAlign=top;childLayout=stackLayout;horizontal=1;startSize=26;horizontalStack=0;resizeParent=1;resizeParentMax=0;resizeLast=0;collapsible=1;marginBottom=0;whiteSpace=wrap;html=1;" vertex="1" parent="1">
          <mxGeometry x="99" y="370" width="240" height="110" as="geometry" />
        </mxCell>
        <mxCell id="xTYQACZsR914-nS0ampq-33" value="- messageRepository: MessageRepository" style="text;strokeColor=none;fillColor=none;align=left;verticalAlign=top;spacingLeft=4;spacingRight=4;overflow=hidden;rotatable=0;points=[[0,0.5],[1,0.5]];portConstraint=eastwest;whiteSpace=wrap;html=1;" vertex="1" parent="xTYQACZsR914-nS0ampq-32">
          <mxGeometry y="26" width="240" height="26" as="geometry" />
        </mxCell>
        <mxCell id="xTYQACZsR914-nS0ampq-34" value="" style="line;strokeWidth=1;fillColor=none;align=left;verticalAlign=middle;spacingTop=-1;spacingLeft=3;spacingRight=3;rotatable=0;labelPosition=right;points=[];portConstraint=eastwest;strokeColor=inherit;" vertex="1" parent="xTYQACZsR914-nS0ampq-32">
          <mxGeometry y="52" width="240" height="8" as="geometry" />
        </mxCell>
        <mxCell id="xTYQACZsR914-nS0ampq-35" value="+ findAll(Page): List&amp;lt;MessageResponse&amp;gt;&lt;br&gt;+ save(Message): String" style="text;strokeColor=none;fillColor=none;align=left;verticalAlign=top;spacingLeft=4;spacingRight=4;overflow=hidden;rotatable=0;points=[[0,0.5],[1,0.5]];portConstraint=eastwest;whiteSpace=wrap;html=1;" vertex="1" parent="xTYQACZsR914-nS0ampq-32">
          <mxGeometry y="60" width="240" height="50" as="geometry" />
        </mxCell>
        <mxCell id="xTYQACZsR914-nS0ampq-36" value="Use" style="endArrow=open;endSize=12;dashed=1;html=1;rounded=0;" edge="1" parent="1" source="xTYQACZsR914-nS0ampq-9" target="xTYQACZsR914-nS0ampq-32">
          <mxGeometry width="160" relative="1" as="geometry">
            <mxPoint x="299" y="410" as="sourcePoint" />
            <mxPoint x="429" y="316" as="targetPoint" />
          </mxGeometry>
        </mxCell>
        <mxCell id="xTYQACZsR914-nS0ampq-37" value="Use" style="endArrow=open;endSize=12;dashed=1;html=1;rounded=0;" edge="1" parent="1" source="xTYQACZsR914-nS0ampq-5" target="xTYQACZsR914-nS0ampq-1">
          <mxGeometry width="160" relative="1" as="geometry">
            <mxPoint x="349" y="417" as="sourcePoint" />
            <mxPoint x="609" y="379" as="targetPoint" />
          </mxGeometry>
        </mxCell>
      </root>
    </mxGraphModel>
  </diagram>
</mxfile>
